<?xml version="1.0" encoding="UTF-8" standalone="no"?>
<svg
   xmlns:dc="http://purl.org/dc/elements/1.1/"
   xmlns:cc="http://creativecommons.org/ns#"
   xmlns:rdf="http://www.w3.org/1999/02/22-rdf-syntax-ns#"
   xmlns:svg="http://www.w3.org/2000/svg"
   xmlns="http://www.w3.org/2000/svg"
   xmlns:sodipodi="http://sodipodi.sourceforge.net/DTD/sodipodi-0.dtd"
   xmlns:inkscape="http://www.inkscape.org/namespaces/inkscape"
   width="32"
   height="32"
   viewBox="0 0 8.4666659 8.4666667"
   version="1.1"
   id="svg8"
   inkscape:version="1.0.1 (3bc2e813f5, 2020-09-07)"
   sodipodi:docname="clock.svg">
  <defs
     id="defs2" />
  <sodipodi:namedview
     id="base"
     pagecolor="#ffffff"
     bordercolor="#666666"
     borderopacity="1.0"
     inkscape:pageopacity="0.0"
     inkscape:pageshadow="2"
     inkscape:zoom="22.4"
     inkscape:cx="16.868464"
     inkscape:cy="16.124861"
     inkscape:document-units="mm"
     inkscape:current-layer="layer1"
     inkscape:document-rotation="0"
     showgrid="false"
     units="px"
     inkscape:window-width="1431"
     inkscape:window-height="1033"
     inkscape:window-x="367"
     inkscape:window-y="22"
     inkscape:window-maximized="0" />
  <metadata
     id="metadata5">
    <rdf:RDF>
      <cc:Work
         rdf:about="">
        <dc:format>image/svg+xml</dc:format>
        <dc:type
           rdf:resource="http://purl.org/dc/dcmitype/StillImage" />
        <dc:title />
      </cc:Work>
    </rdf:RDF>
  </metadata>
  <g
     inkscape:label="Layer 1"
     inkscape:groupmode="layer"
     id="layer1">
    <path
       d="m 2.1236747,0.5874171 c 0.6467343,-0.37761274 1.3503476,-0.56615596 2.11084,-0.56615596 0.7604921,0 1.4641054,0.18854342 2.1108399,0.56615596 A 4.2037736,4.2037736 0 0 1 7.881612,2.1231479 c 0.3776129,0.647261 0.5661559,1.3503476 0.5661559,2.1113666 0,0.7610189 -0.1885434,1.4641054 -0.5661559,2.1113665 A 4.200087,4.200087 0 0 1 6.3453546,7.8816118 c -0.6467345,0.377613 -1.3503478,0.566156 -2.1108399,0.566156 -0.7604924,0 -1.4646323,-0.1885434 -2.11084,-0.566156 A 4.2037736,4.2037736 0 0 1 0.58741711,6.345881 C 0.20980427,5.6986199 0.02126119,4.9955334 0.02126119,4.2345145 c 0,-0.761019 0.18854302,-1.4641056 0.56615592,-2.1113666 A 4.2079868,4.2079868 0 0 1 2.1236747,0.5874171 Z M 2.0225566,6.4464725 c 0.6204015,0.6204015 1.3577209,0.9306023 2.2119581,0.9306023 0.854237,0 1.5915564,-0.3102008 2.211958,-0.9306023 0.6198747,-0.6204016 0.9306022,-1.357721 0.9306022,-2.211958 0,-0.8542372 -0.3107275,-1.5915566 -0.9306022,-2.211958 -0.6204016,-0.6204016 -1.357721,-0.9306022 -2.211958,-0.9306022 -0.8547639,0 -1.5915566,0.3102006 -2.2119581,0.9306022 -0.6204015,0.6204014 -0.9306024,1.3577208 -0.9306024,2.211958 0,0.854237 0.3102009,1.5915564 0.9306024,2.211958 z M 5.8497705,5.8850564 A 0.44239161,0.44239161 0 0 1 5.5379898,6.0072409 0.44239161,0.44239161 0 0 1 5.2262092,5.8850564 L 3.8395222,4.7785507 C 3.716811,4.6674263 3.6609855,4.535762 3.6725718,4.3835582 L 3.769476,2.1542206 A 0.45608469,0.45608469 0 0 1 3.9185197,1.8298002 0.43923167,0.43923167 0 0 1 4.2518932,1.7070891 c 0.1227112,0.00579 0.226989,0.052665 0.3117807,0.1406178 0.084792,0.087951 0.1300841,0.1901239 0.1358765,0.3070408 l 0.087953,1.9923421 1.0885992,1.070693 A 0.44765817,0.44765817 0 0 1 5.9988136,5.556423 0.46345787,0.46345787 0 0 1 5.8497705,5.8850564 Z"
       id="path29"
       style="stroke-width:0.526656;fill:#ffffff;fill-opacity:0.60000002" />
  </g>
</svg>
