<?xml version="1.0" encoding="UTF-8" standalone="no"?>
<svg
   xmlns:dc="http://purl.org/dc/elements/1.1/"
   xmlns:cc="http://creativecommons.org/ns#"
   xmlns:rdf="http://www.w3.org/1999/02/22-rdf-syntax-ns#"
   xmlns:svg="http://www.w3.org/2000/svg"
   xmlns="http://www.w3.org/2000/svg"
   xmlns:sodipodi="http://sodipodi.sourceforge.net/DTD/sodipodi-0.dtd"
   xmlns:inkscape="http://www.inkscape.org/namespaces/inkscape"
   width="32"
   height="32"
   viewBox="0 0 8.4666659 8.4666667"
   version="1.1"
   id="svg8"
   inkscape:version="1.0.1 (3bc2e813f5, 2020-09-07)"
   sodipodi:docname="instagram.svg">
  <defs
     id="defs2" />
  <sodipodi:namedview
     id="base"
     pagecolor="#ffffff"
     bordercolor="#666666"
     borderopacity="1.0"
     inkscape:pageopacity="0.0"
     inkscape:pageshadow="2"
     inkscape:zoom="22.4"
     inkscape:cx="16.708762"
     inkscape:cy="17.553433"
     inkscape:document-units="mm"
     inkscape:current-layer="layer1"
     inkscape:document-rotation="0"
     showgrid="false"
     units="px"
     inkscape:window-width="1431"
     inkscape:window-height="1033"
     inkscape:window-x="367"
     inkscape:window-y="0"
     inkscape:window-maximized="0" />
  <metadata
     id="metadata5">
    <rdf:RDF>
      <cc:Work
         rdf:about="">
        <dc:format>image/svg+xml</dc:format>
        <dc:type
           rdf:resource="http://purl.org/dc/dcmitype/StillImage" />
        <dc:title />
      </cc:Work>
    </rdf:RDF>
  </metadata>
  <g
     inkscape:label="Layer 1"
     inkscape:groupmode="layer"
     id="layer1">
    <path
       d="m 8.4595796,1.2567048 v 5.991055 A 1.2359724,1.2359724 0 0 1 7.2241362,8.4832032 H 1.2330811 A 1.2359724,1.2359724 0 0 1 -0.00236228,7.2477598 V 1.2567048 A 1.2359724,1.2359724 0 0 1 1.2330811,0.02126119 H 7.2241362 A 1.2359724,1.2359724 0 0 1 8.4595796,1.2567048 Z M 7.5795378,3.7233608 H 6.6413199 c 0.037021,0.1692395 0.053946,0.3469397 0.053946,0.5288715 0,1.3634303 -1.1032256,2.466656 -2.4666559,2.466656 -1.3634306,0 -2.4666562,-1.1032257 -2.4666562,-2.466656 0,-0.1819324 0.016391,-0.3596326 0.053946,-0.5288715 H 0.87820846 v 3.7020998 c 0,0.099428 0.0782723,0.1777007 0.17770074,0.1777007 H 7.4023657 A 0.17611417,0.17611417 0 0 0 7.5800665,7.4254606 V 3.7233608 Z M 2.6419946,4.2522323 a 1.587143,1.587143 0 0 0 3.1732283,0 1.587143,1.587143 0 0 0 -3.1732283,0 z M 7.5795378,1.079004 A 0.17611417,0.17611417 0 0 0 7.401837,0.90130323 H 6.3440942 A 0.17611417,0.17611417 0 0 0 6.1663934,1.079004 v 1.0577427 c 0,0.099428 0.078272,0.1777007 0.1777008,0.1777007 H 7.401837 A 0.17611417,0.17611417 0 0 0 7.5795378,2.1367467 Z"
       id="path89"
       style="stroke-width:0.528871;fill:#ffffff;fill-opacity:1" />
  </g>
</svg>
