<?xml version="1.0" encoding="UTF-8" standalone="no"?>
<svg
   xmlns:dc="http://purl.org/dc/elements/1.1/"
   xmlns:cc="http://creativecommons.org/ns#"
   xmlns:rdf="http://www.w3.org/1999/02/22-rdf-syntax-ns#"
   xmlns:svg="http://www.w3.org/2000/svg"
   xmlns="http://www.w3.org/2000/svg"
   xmlns:xlink="http://www.w3.org/1999/xlink"
   xmlns:sodipodi="http://sodipodi.sourceforge.net/DTD/sodipodi-0.dtd"
   xmlns:inkscape="http://www.inkscape.org/namespaces/inkscape"
   version="1.1"
   id="Capa_1"
   x="0px"
   y="0px"
   width="30.239px"
   height="30.239px"
   viewBox="0 0 30.239 30.239"
   style="enable-background:new 0 0 30.239 30.239;"
   xml:space="preserve"
   sodipodi:docname="search.svg"
   inkscape:version="1.0.1 (3bc2e813f5, 2020-09-07)"><metadata
   id="metadata41"><rdf:RDF><cc:Work
       rdf:about=""><dc:format>image/svg+xml</dc:format><dc:type
         rdf:resource="http://purl.org/dc/dcmitype/StillImage" /><dc:title></dc:title></cc:Work></rdf:RDF></metadata><defs
   id="defs39"><linearGradient
     inkscape:collect="always"
     id="linearGradient870"><stop
       style="stop-color:#000000;stop-opacity:1;"
       offset="0"
       id="stop866" /><stop
       style="stop-color:#000000;stop-opacity:0;"
       offset="1"
       id="stop868" /></linearGradient><linearGradient
     inkscape:collect="always"
     xlink:href="#linearGradient870"
     id="linearGradient872"
     x1="-0.49640349"
     y1="15.119643"
     x2="30.735086"
     y2="15.119643"
     gradientUnits="userSpaceOnUse" /></defs><sodipodi:namedview
   pagecolor="#ffffff"
   bordercolor="#666666"
   borderopacity="1"
   objecttolerance="10"
   gridtolerance="10"
   guidetolerance="10"
   inkscape:pageopacity="0"
   inkscape:pageshadow="2"
   inkscape:window-width="1920"
   inkscape:window-height="1013"
   id="namedview37"
   showgrid="false"
   inkscape:zoom="27.844836"
   inkscape:cx="15.1195"
   inkscape:cy="13.682968"
   inkscape:window-x="-9"
   inkscape:window-y="-9"
   inkscape:window-maximized="1"
   inkscape:current-layer="Capa_1" />
<g
   id="g4"
   transform="rotate(90,15.11975,15.12)"
   style="stroke:#a20000;stroke-opacity:1;stroke-width:0;stroke-miterlimit:4;stroke-dasharray:none">
	<path
   d="m 20.194,3.46 c -4.613,-4.613 -12.121,-4.613 -16.734,0 -4.612,4.614 -4.612,12.121 0,16.735 4.108,4.107 10.506,4.547 15.116,1.34 0.097,0.459 0.319,0.897 0.676,1.254 l 6.718,6.718 c 0.979,0.977 2.561,0.977 3.535,0 0.978,-0.978 0.978,-2.56 0,-3.535 l -6.718,-6.72 C 22.432,18.898 21.993,18.675 21.534,18.578 24.743,13.967 24.303,7.57 20.194,3.46 Z m -2.121,14.614 c -3.444,3.444 -9.049,3.444 -12.492,0 -3.442,-3.444 -3.442,-9.048 0,-12.492 3.443,-3.443 9.048,-3.443 12.492,0 3.444,3.444 3.444,9.048 0,12.492 z"
   id="path2"
   style="stroke:none;stroke-opacity:1;stroke-width:0;stroke-miterlimit:4;stroke-dasharray:none;fill:#bababa;fill-opacity:1" />
</g>
<g
   id="g6">
</g>
<g
   id="g8">
</g>
<g
   id="g10">
</g>
<g
   id="g12">
</g>
<g
   id="g14">
</g>
<g
   id="g16">
</g>
<g
   id="g18">
</g>
<g
   id="g20">
</g>
<g
   id="g22">
</g>
<g
   id="g24">
</g>
<g
   id="g26">
</g>
<g
   id="g28">
</g>
<g
   id="g30">
</g>
<g
   id="g32">
</g>
<g
   id="g34">
</g>
</svg>
