<?xml version="1.0" encoding="UTF-8" standalone="no"?>
<svg
   xmlns:dc="http://purl.org/dc/elements/1.1/"
   xmlns:cc="http://creativecommons.org/ns#"
   xmlns:rdf="http://www.w3.org/1999/02/22-rdf-syntax-ns#"
   xmlns:svg="http://www.w3.org/2000/svg"
   xmlns="http://www.w3.org/2000/svg"
   xmlns:sodipodi="http://sodipodi.sourceforge.net/DTD/sodipodi-0.dtd"
   xmlns:inkscape="http://www.inkscape.org/namespaces/inkscape"
   width="32"
   height="32"
   viewBox="0 0 8.4666665 8.4666669"
   version="1.1"
   id="svg8"
   inkscape:version="1.0.1 (3bc2e813f5, 2020-09-07)"
   sodipodi:docname="suitcase.svg">
  <defs
     id="defs2" />
  <sodipodi:namedview
     id="base"
     pagecolor="#ffffff"
     bordercolor="#666666"
     borderopacity="1.0"
     inkscape:pageopacity="0.0"
     inkscape:pageshadow="2"
     inkscape:zoom="32"
     inkscape:cx="17.583095"
     inkscape:cy="10.011125"
     inkscape:document-units="mm"
     inkscape:current-layer="layer2"
     inkscape:document-rotation="0"
     showgrid="false"
     units="px"
     inkscape:window-width="1920"
     inkscape:window-height="1013"
     inkscape:window-x="-9"
     inkscape:window-y="-9"
     inkscape:window-maximized="1" />
  <metadata
     id="metadata5">
    <rdf:RDF>
      <cc:Work
         rdf:about="">
        <dc:format>image/svg+xml</dc:format>
        <dc:type
           rdf:resource="http://purl.org/dc/dcmitype/StillImage" />
        <dc:title></dc:title>
      </cc:Work>
    </rdf:RDF>
  </metadata>
  <g
     inkscape:groupmode="layer"
     id="layer2"
     inkscape:label="vector"
     style="display:inline">
    <path
       style="opacity:1;fill:#000000;fill-opacity:1;stroke:none;stroke-width:0.265;stroke-linecap:butt;stroke-linejoin:miter;stroke-miterlimit:4;stroke-dasharray:none;stroke-opacity:1"
       d="m 0.01414,4.8049904 c 0.85529612,-0.00119 3.1653882,-0.00255 3.1653882,-0.00255 0,0 -0.00363,0.4287227 -0.00288,0.7499446 -0.00583,0.1544097 0.1085271,0.3110263 0.2880664,0.3261693 0.290362,8.167e-4 0.7724688,0.00204 0.8514907,0.00201 0.1580438,-5.56e-5 0.4114233,-0.00278 0.6297805,-6.494e-4 0.2189507,0.011918 0.3490097,-0.1596951 0.3430623,-0.3379043 6.542e-4,-0.224718 -0.00338,-0.7402531 -0.00338,-0.7402531 0,0 2.0728679,-4.862e-4 3.1698633,0.00323 0,0 -0.00167,1.2926887 -0.0016,2.153713 0.057668,0.5937875 -0.3544555,0.9181626 -0.744877,0.9173954 l -6.89889476,0.00835 C 0.1161522,7.84686 -0.01662998,7.2993531 0.01569106,6.9853692 Z"
       id="path843"
       sodipodi:nodetypes="ccccsccccccccc" />
    <path
       style="opacity:1;fill:#000000;fill-opacity:1;stroke:none;stroke-width:0.265;stroke-linecap:butt;stroke-linejoin:miter;stroke-miterlimit:4;stroke-dasharray:none;stroke-opacity:1"
       d="M 3.6323399,5.4178199 V 4.80213 h 1.20552 v 0.6156899 z"
       id="path845" />
    <path
       style="opacity:1;fill:#000000;fill-opacity:1;stroke:none;stroke-width:0.264583px;stroke-linecap:butt;stroke-linejoin:miter;stroke-opacity:1"
       d="M 0.01414,4.3404901 0.01653646,2.563151 C -0.01376895,2.1101269 0.31212022,1.6949131 0.86402993,1.7239257 L 2.42627,1.72418 h 3.6166098 l 1.5845615,0.00181 C 8.0624488,1.6983198 8.4420503,2.0153395 8.45553,2.49499 v 1.8455001 z"
       id="path847"
       sodipodi:nodetypes="ccccccccc" />
    <path
       style="opacity:1;fill:#000000;fill-opacity:1;stroke:none;stroke-width:0.264583px;stroke-linecap:butt;stroke-linejoin:miter;stroke-opacity:1"
       d="m 2.42627,1.72418 0.6025098,5.397e-4 V 1.10954 H 5.4403799 V 1.72472 L 6.0428798,1.7241802 6.0394561,0.95882967 C 6.0032738,0.60776668 5.805699,0.4887055 5.5205773,0.49549292 L 2.901336,0.49695459 C 2.6068126,0.48091319 2.3823532,0.72934832 2.4263061,1.0582206 Z"
       id="path849"
       sodipodi:nodetypes="ccccccccccc" />
  </g>
</svg>
