<?xml version="1.0" encoding="UTF-8" standalone="no"?>
<svg
   xmlns:dc="http://purl.org/dc/elements/1.1/"
   xmlns:cc="http://creativecommons.org/ns#"
   xmlns:rdf="http://www.w3.org/1999/02/22-rdf-syntax-ns#"
   xmlns:svg="http://www.w3.org/2000/svg"
   xmlns="http://www.w3.org/2000/svg"
   xmlns:sodipodi="http://sodipodi.sourceforge.net/DTD/sodipodi-0.dtd"
   xmlns:inkscape="http://www.inkscape.org/namespaces/inkscape"
   width="32mm"
   height="32mm"
   viewBox="0 0 32 32"
   version="1.1"
   id="svg8"
   inkscape:version="1.0.1 (3bc2e813f5, 2020-09-07)"
   sodipodi:docname="suitcase.svg">
  <defs
     id="defs2" />
  <sodipodi:namedview
     id="base"
     pagecolor="#ffffff"
     bordercolor="#666666"
     borderopacity="1.0"
     inkscape:pageopacity="0.0"
     inkscape:pageshadow="2"
     inkscape:zoom="1.4"
     inkscape:cx="65.617499"
     inkscape:cy="183.03494"
     inkscape:document-units="mm"
     inkscape:current-layer="briefcase--dark"
     inkscape:document-rotation="0"
     showgrid="false"
     inkscape:window-width="1431"
     inkscape:window-height="1033"
     inkscape:window-x="32"
     inkscape:window-y="0"
     inkscape:window-maximized="0" />
  <metadata
     id="metadata5">
    <rdf:RDF>
      <cc:Work
         rdf:about="">
        <dc:format>image/svg+xml</dc:format>
        <dc:type
           rdf:resource="http://purl.org/dc/dcmitype/StillImage" />
        <dc:title></dc:title>
      </cc:Work>
    </rdf:RDF>
  </metadata>
  <g
     inkscape:label="vector"
     inkscape:groupmode="layer"
     id="layer1">
    <svg
       width="16"
       height="16"
       viewBox="-239.5 160.5 16 16"
       id="briefcase--dark"
       x="48"
       y="48"
       version="1.1"
       inkscape:transform-center-x="-0.37797619"
       inkscape:transform-center-y="-1.3229167">
      <path
         d="m -275.82251,119.02597 h 9.1293 v -2.32876 h -9.1293 z m 20.54343,11.6498 v 8.73584 c 0,0.80289 -0.28162,1.48594 -0.83885,2.05714 -0.55921,0.56921 -1.23028,0.85881 -2.01519,0.85881 h -26.25149 c -0.7849,0 -1.45598,-0.2896 -2.01519,-0.85881 -0.55922,-0.5692 -0.83684,-1.25425 -0.83684,-2.05714 v -8.73584 h 11.98333 v 2.91394 c 0,0.31556 0.11182,0.58518 0.33753,0.81686 a 1.0884862,1.0884862 0 0 0 0.80289,0.34552 h 5.70207 a 1.0884862,1.0884862 0 0 0 0.80288,-0.34552 1.1284306,1.1284306 0 0 0 0.33953,-0.81686 v -2.91394 z m -13.69496,0 v 2.33075 h -4.56365 v -2.33075 z m 13.69496,-8.73386 v 6.98628 h -31.95556 v -6.98628 c 0,-0.80487 0.27961,-1.48793 0.83683,-2.06114 0.55922,-0.5672 1.2303,-0.8568 2.0152,-0.8568 h 6.27927 v -2.90995 c 0,-0.48532 0.16577,-0.89675 0.4993,-1.23828 a 1.6417167,1.6417167 0 0 1 1.21032,-0.50929 h 10.27371 c 0.47334,0 0.87677,0.17176 1.21032,0.50929 a 1.7116194,1.7116194 0 0 1 0.49731,1.23828 v 2.90995 h 6.28127 c 0.7849,0 1.45596,0.2896 2.01519,0.8568 0.55522,0.57321 0.83684,1.25826 0.83684,2.06114 z"
         id="path11"
         style="stroke-width:1.997;stroke-miterlimit:4;stroke-dasharray:none;fill:#ffffff;fill-opacity:1" />
    </svg>
  </g>
</svg>
